<svg width="52" height="52" viewBox="0 0 52 52" fill="none" xmlns="http://www.w3.org/2000/svg">
<rect width="52" height="52" rx="12" fill="white"/>
<rect x="2" y="2" width="48" height="48" rx="12" stroke="black" stroke-width="4"/>
<path d="M23.3333 24.6667H15.3333C14.9797 24.6667 14.6406 24.8071 14.3905 25.0572C14.1405 25.3072 14 25.6464 14 26C14 26.3536 14.1405 26.6928 14.3905 26.9428C14.6406 27.1929 14.9797 27.3333 15.3333 27.3333H23.3333C23.687 27.3333 24.0261 27.1929 24.2761 26.9428C24.5262 26.6928 24.6667 26.3536 24.6667 26C24.6667 25.6464 24.5262 25.3072 24.2761 25.0572C24.0261 24.8071 23.687 24.6667 23.3333 24.6667ZM28.6667 16.6667H36.6667C37.0203 16.6667 37.3594 16.5262 37.6095 16.2761C37.8595 16.0261 38 15.687 38 15.3333C38 14.9797 37.8595 14.6406 37.6095 14.3905C37.3594 14.1405 37.0203 14 36.6667 14H28.6667C28.313 14 27.9739 14.1405 27.7239 14.3905C27.4738 14.6406 27.3333 14.9797 27.3333 15.3333C27.3333 15.687 27.4738 16.0261 27.7239 16.2761C27.9739 16.5262 28.313 16.6667 28.6667 16.6667ZM36.6667 19.3333H28.6667C28.313 19.3333 27.9739 19.4738 27.7239 19.7239C27.4738 19.9739 27.3333 20.313 27.3333 20.6667V36.6667C27.3333 37.0203 27.4738 37.3594 27.7239 37.6095C27.9739 37.8595 28.313 38 28.6667 38H36.6667C37.0203 38 37.3594 37.8595 37.6095 37.6095C37.8595 37.3594 38 37.0203 38 36.6667V20.6667C38 20.313 37.8595 19.9739 37.6095 19.7239C37.3594 19.4738 37.0203 19.3333 36.6667 19.3333ZM23.3333 30H15.3333C14.9797 30 14.6406 30.1405 14.3905 30.3905C14.1405 30.6406 14 30.9797 14 31.3333V36.6667C14 37.0203 14.1405 37.3594 14.3905 37.6095C14.6406 37.8595 14.9797 38 15.3333 38H23.3333C23.687 38 24.0261 37.8595 24.2761 37.6095C24.5262 37.3594 24.6667 37.0203 24.6667 36.6667V31.3333C24.6667 30.9797 24.5262 30.6406 24.2761 30.3905C24.0261 30.1405 23.687 30 23.3333 30Z" fill="black"/>
</svg>
