<svg width="52" height="52" viewBox="0 0 52 52" fill="none" xmlns="http://www.w3.org/2000/svg">
<rect x="2" y="2" width="48" height="48" rx="12" stroke="black" stroke-width="4"/>
<path d="M35.406 38.5999H30.294V22.2559H23.958V18.4039C24.846 18.4279 25.698 18.3679 26.514 18.2239C27.354 18.0559 28.098 17.7799 28.746 17.3959C29.418 16.9879 29.982 16.4599 30.438 15.8119C30.894 15.1639 31.194 14.3599 31.338 13.3999H35.406V38.5999Z" fill="black"/>
<path d="M24.0417 38.5999H18.9297V22.2559H12.5938V18.4039C13.4818 18.4279 14.3338 18.3679 15.1498 18.2239C15.9897 18.0559 16.7338 17.7799 17.3818 17.3959C18.0538 16.9879 18.6177 16.4599 19.0737 15.8119C19.5297 15.1639 19.8298 14.3599 19.9738 13.3999H24.0417V38.5999Z" fill="black"/>
</svg>
